<?xml version="1.0" encoding="iso-8859-1"?>
<!-- Generator: Adobe Illustrator 19.0.0, SVG Export Plug-In . SVG Version: 6.00 Build 0)  -->
<svg version="1.1" id="Capa_1" xmlns="http://www.w3.org/2000/svg" xmlns:xlink="http://www.w3.org/1999/xlink" x="0px" y="0px"
	 viewBox="0 0 496.485 496.485" style="enable-background:new 0 0 496.485 496.485;" xml:space="preserve">
<circle style="fill:#4FBF9F;" cx="237.291" cy="179.2" r="179.2"/>
<g>
	<rect x="293.146" y="277.721" style="fill:#193651;" width="13.964" height="13.964"/>
	<rect x="293.146" y="315.733" style="fill:#193651;" width="13.964" height="13.964"/>
</g>
<rect x="293.146" y="353.745" style="fill:#193651;" width="13.964" height="13.964"/>
<g>
	<rect x="457.606" y="277.721" style="fill:#193651;" width="13.964" height="13.964"/>
	<rect x="457.606" y="315.733" style="fill:#193651;" width="13.964" height="13.964"/>
</g>
<rect x="457.606" y="353.745" style="fill:#193651;" width="13.964" height="13.964"/>
<path style="fill:#2EA2DB;" d="M103.085,231.176c0,0-26.376,85.333-70.594,103.951l37.236,95.418h66.715l37.236-95.418
	C128.685,316.509,103.085,231.176,103.085,231.176z"/>
<path style="fill:#193651;" d="M136.443,437.527H68.952c-3.103,0-5.43-1.552-6.206-4.655l-37.236-95.418
	c-1.552-3.879,0-7.758,3.879-9.309c41.115-17.067,66.715-98.521,66.715-100.073c0.776-3.103,3.879-4.655,6.982-4.655l0,0
	c3.103,0,5.43,2.327,6.982,4.655c0,0.776,25.6,83.006,66.715,100.073c3.879,1.552,5.43,5.43,3.879,9.309l-37.236,95.418
	C141.873,435.2,138.77,437.527,136.443,437.527z M74.382,423.564h57.406l33.358-84.558c-31.03-17.067-51.976-61.285-62.061-86.885
	c-10.085,25.6-31.03,69.818-62.061,86.885L74.382,423.564z"/>
<path style="fill:#FFFFFF;" d="M85.243,404.17l-24.048-59.733c17.842-13.188,31.806-34.909,41.891-54.303
	c10.085,19.394,24.048,41.115,41.891,54.303l-24.048,59.733H85.243z"/>
<rect x="61.194" y="454.594" style="fill:#FDBF5E;" width="83.006" height="34.909"/>
<path style="fill:#193651;" d="M144.2,496.485H61.194c-3.879,0-6.982-3.103-6.982-6.982v-34.909c0-3.879,3.103-6.982,6.982-6.982
	H144.2c3.879,0,6.982,3.103,6.982,6.982v34.909C151.182,493.382,148.079,496.485,144.2,496.485z M68.176,482.521h69.042v-20.945
	H68.176V482.521z"/>
<rect x="52.661" y="430.545" style="fill:#FFFFFF;" width="100.073" height="24.048"/>
<g>
	<path style="fill:#193651;" d="M152.734,461.576H52.661c-3.879,0-6.982-3.103-6.982-6.982v-24.048c0-3.879,3.103-6.982,6.982-6.982
		h100.073c3.879,0,6.982,3.103,6.982,6.982v24.048C159.715,458.473,156.612,461.576,152.734,461.576z M59.643,447.612h86.109
		v-10.085H59.643V447.612z"/>
	<circle style="fill:#193651;" cx="103.085" cy="363.83" r="17.067"/>
	<path style="fill:#193651;" d="M103.085,356.849c-3.879,0-6.982-3.103-6.982-6.982V231.176c0-3.879,3.103-6.982,6.982-6.982
		c3.879,0,6.982,3.103,6.982,6.982v118.691C110.067,353.745,106.964,356.849,103.085,356.849z"/>
	<path style="fill:#193651;" d="M370.722,214.109c-3.879,0-6.982-3.103-6.982-6.982c0-69.818-56.63-126.448-126.448-126.448
		s-126.448,56.63-126.448,126.448c0,3.879-3.103,6.982-6.982,6.982c-3.879,0-6.982-3.103-6.982-6.982
		c0-77.576,62.836-140.412,140.412-140.412s140.412,62.836,140.412,140.412C377.703,211.006,374.6,214.109,370.722,214.109z"/>
</g>
<rect x="85.243" y="190.836" style="fill:#FDBF5E;" width="36.461" height="36.461"/>
<path style="fill:#193651;" d="M121.703,235.055H85.243c-3.879,0-6.982-3.103-6.982-6.982v-36.461c0-3.879,3.103-6.982,6.982-6.982
	h36.461c3.879,0,6.982,3.103,6.982,6.982v36.461C128.685,231.952,125.582,235.055,121.703,235.055z M92.225,221.091h22.497v-22.497
	H92.225V221.091z"/>
<rect x="352.103" y="190.836" style="fill:#FDBF5E;" width="36.461" height="36.461"/>
<path style="fill:#193651;" d="M389.34,235.055h-36.461c-3.879,0-6.982-3.103-6.982-6.982v-36.461c0-3.879,3.103-6.982,6.982-6.982
	h36.461c3.879,0,6.982,3.103,6.982,6.982v36.461C396.322,231.952,393.219,235.055,389.34,235.055z M359.085,221.091h22.497v-22.497
	h-22.497V221.091z"/>
<rect x="218.673" y="55.079" style="fill:#FDBF5E;" width="36.461" height="36.461"/>
<path style="fill:#193651;" d="M255.134,98.521h-36.461c-3.879,0-6.982-3.103-6.982-6.982V55.079c0-3.879,3.103-6.982,6.982-6.982
	h36.461c3.879,0,6.982,3.103,6.982,6.982v36.461C262.115,95.418,259.012,98.521,255.134,98.521z M225.655,84.558h22.497V62.061
	h-22.497V84.558z"/>
<path style="fill:#E1E6E9;" d="M217.897,298.667h38.012c0,75.248-8.533,185.406-19.394,185.406
	C226.431,484.073,217.897,373.915,217.897,298.667z"/>
<path style="fill:#193651;" d="M237.291,491.055c-6.206,0-13.964,0-20.17-70.594c-3.103-37.236-5.43-83.782-5.43-121.018
	c0-3.879,3.103-6.982,6.982-6.982h37.236c3.879,0,6.982,3.103,6.982,6.982c0,38.012-2.327,84.558-5.43,121.018
	C251.255,491.055,243.497,491.055,237.291,491.055z M224.879,305.648c0.776,65.939,6.206,134.206,12.412,161.358
	c5.43-27.152,11.636-95.418,12.412-161.358H224.879z"/>
<path style="fill:#FFFFFF;" d="M237.291,217.988c10.861,0,19.394,6.206,19.394,80.679h-38.012
	C217.897,223.418,226.431,217.988,237.291,217.988z"/>
<path style="fill:#193651;" d="M256.685,305.648C255.909,305.648,255.909,305.648,256.685,305.648h-38.012
	c-3.879,0-6.982-3.103-6.982-6.982c0-67.491,6.206-87.661,26.376-87.661s25.6,20.17,26.376,86.885c0,0.776,0,0.776,0,1.552
	C263.667,302.545,260.564,305.648,256.685,305.648z M224.879,291.685h24.048c0-66.715-8.533-66.715-11.636-66.715
	S225.655,224.97,224.879,291.685z"/>
<path style="fill:#F16051;" d="M276.079,201.697c0,21.721-17.842,38.788-38.788,38.788s-38.788-17.842-38.788-38.788
	c0-21.721,38.788-70.594,38.788-70.594S276.079,179.976,276.079,201.697z"/>
<path style="fill:#193651;" d="M237.291,248.242c-25.6,0-45.77-20.945-45.77-45.77c0-23.273,36.461-69.818,40.339-75.248
	c1.552-1.552,3.103-2.327,5.43-2.327l0,0c2.327,0,3.879,0.776,5.43,2.327c3.879,5.43,40.339,51.976,40.339,75.248
	C283.061,227.297,262.891,248.242,237.291,248.242z M237.291,141.964c-13.964,19.394-31.806,47.321-31.806,59.733
	c0,17.842,14.739,31.806,31.806,31.806c17.842,0,31.806-14.739,31.806-31.806C269.097,189.285,251.255,161.358,237.291,141.964z"/>
<rect x="341.243" y="356.073" style="fill:#E1E6E9;" width="83.006" height="83.006"/>
<path style="fill:#193651;" d="M423.473,445.285h-82.23c-3.879,0-6.982-3.103-6.982-6.982v-82.23c0-3.879,3.103-6.982,6.982-6.982
	h83.006c3.879,0,6.982,3.103,6.982,6.982v83.006C430.455,442.182,427.352,445.285,423.473,445.285z M348.225,431.321h68.267v-68.267
	h-68.267V431.321z"/>
<path style="fill:#193651;" d="M353.655,469.333c-3.879-1.552-5.43-5.43-3.879-9.309l52.751-131.103
	c1.552-3.879,5.43-5.43,9.309-3.879s5.43,5.43,3.879,9.309l-53.527,131.103C361.412,468.558,356.758,470.109,353.655,469.333z"/>
<g>
</g>
<g>
</g>
<g>
</g>
<g>
</g>
<g>
</g>
<g>
</g>
<g>
</g>
<g>
</g>
<g>
</g>
<g>
</g>
<g>
</g>
<g>
</g>
<g>
</g>
<g>
</g>
<g>
</g>
</svg>
